# xmcd
#
# Track frame offsets:
#	150
#	20452
#	37602
#	55942
#	75591
#	91735
#	117037
#	134725
#	151669
#	170174
#	189020
#	223233
#
# Disc length: 3152 seconds
#
# Revision: 1
# Processed by: cddbd v1.4PL0 Copyright (c) Steve Scherf et al.
# Submitted via: audiograbber 1.82.01
#
DISCID=8f0c4e0c
DTITLE=The Blues Talkers - Welcome to the Swamp
DYEAR=2003
DGENRE=Blues
TTITLE0=Chicken Heads
TTITLE1=All Your Love
TTITLE2=Mellow Down Easy
TTITLE3=Lover Man
TTITLE4=In the Night
TTITLE5=Boo Frog
TTITLE6=Don't Lie to Me
TTITLE7=Don't Let My Baby Ride
TTITLE8=Big Mamou
TTITLE9=Country Girl
TTITLE10=Welcome to the Swamp
TTITLE11=Frenetic Disgrace
EXTD=
EXTT0=
EXTT1=
EXTT2=
EXTT3=
EXTT4=
EXTT5=
EXTT6=
EXTT7=
EXTT8=
EXTT9=
EXTT10=
EXTT11=
PLAYORDER=
